# xmcd
# Copyright (C) 1995-1998 Ti Kan
#
# Track frame offsets:
#       150
#       15541
#       34606
#       54116
#       71451
#       83984
#       100302
#       115752
#       130239
#       147681
#       164213
#       178658
#       193288
#       210620
#       227703
#
# Disc length: 3268 seconds
#
# Revision: 13
# Processed by: cddbd v1.5.1PL0 Copyright (c) Steve Scherf et al.
# Submitted via: CD-Transfer v1.0
#
DISCID=d70cc20f
DTITLE=Florence Joy - Euro Express 575
DYEAR=04
DGENRE=
TTITLE0=Alpha Beta Gaga (Mark Ronson Rmx)
TTITLE1=Locked Up
TTITLE2=Karma (Album Vers.)
TTITLE3=Make It Up With Love (Radio Edit)
TTITLE4=Triple Trouble
TTITLE5=Afrodisiac
TTITLE6=Outrageous
TTITLE7=Thunderbirds Are Go
TTITLE8=Whatever U Want
TTITLE9=Get It On
TTITLE10=Psycho Killer (Radio Edit)
TTITLE11=The Sun Is Shining (Down On Me)
TTITLE12=California Callin'
TTITLE13=Play This Song (Get For Short)
TTITLE14=Consequence Of Love
EXTD=
EXTT0=
EXTT1=
EXTT2=
EXTT3=
EXTT4=
EXTT5=
EXTT6=
EXTT7=
EXTT8=
EXTT9=
EXTT10=
EXTT11=
EXTT12=
EXTT13=
EXTT14=
PLAYORDER=
